<?xml version="1.0" encoding="UTF-8" standalone="no"?>
<!DOCTYPE svg PUBLIC "-//W3C//DTD SVG 1.1//EN" "http://www.w3.org/Graphics/SVG/1.1/DTD/svg11.dtd">
<svg width="100%" height="100%" viewBox="0 0 512 92" version="1.1" xmlns="http://www.w3.org/2000/svg" xmlns:xlink="http://www.w3.org/1999/xlink" xml:space="preserve" xmlns:serif="http://www.serif.com/" style="fill-rule:evenodd;clip-rule:evenodd;stroke-linejoin:round;stroke-miterlimit:2;">
    <g transform="matrix(0.138416,0,0,0.138416,-31.3351,-236.868)">
        <g transform="matrix(1.1905,0,0,1.1905,-2788.2,-407.469)">
            <g>
                <g>
                    <g transform="matrix(1,0,0,1,3126.01,2224.54)">
                        <path d="M144.478,3.211C127.141,3.211 110.927,-0.054 95.837,-6.582C80.747,-13.11 67.584,-22.207 56.347,-33.872C45.109,-45.537 36.334,-59.183 30.019,-74.808C23.705,-90.433 20.548,-107.342 20.548,-125.536C20.548,-143.515 23.705,-160.264 30.019,-175.782C36.334,-191.3 45.109,-204.892 56.347,-216.557C67.584,-228.222 80.694,-237.373 95.677,-244.008C110.66,-250.643 126.927,-253.961 144.478,-253.961C160.96,-253.961 175.14,-251.82 187.019,-247.54C198.899,-243.259 210.831,-236.195 222.818,-226.349C224.53,-225.065 225.868,-223.727 226.831,-222.336C227.794,-220.945 228.436,-219.554 228.757,-218.162C229.078,-216.771 229.239,-215.112 229.239,-213.186C229.239,-209.119 227.794,-205.748 224.905,-203.072C222.015,-200.397 218.537,-198.899 214.47,-198.577C210.403,-198.256 206.444,-199.594 202.591,-202.591C194.671,-209.44 186.484,-214.684 178.029,-218.323C169.575,-221.962 158.391,-223.781 144.478,-223.781C131.85,-223.781 119.971,-221.212 108.84,-216.075C97.71,-210.938 87.918,-203.875 79.463,-194.885C71.008,-185.895 64.427,-175.461 59.718,-163.582C55.009,-151.702 52.654,-139.02 52.654,-125.536C52.654,-111.837 55.009,-99.048 59.718,-87.169C64.427,-75.289 71.008,-64.855 79.463,-55.865C87.918,-46.875 97.71,-39.865 108.84,-34.835C119.971,-29.805 131.85,-27.29 144.478,-27.29C155.394,-27.29 165.722,-29.163 175.461,-32.909C185.2,-36.655 194.564,-41.845 203.554,-48.481C207.407,-51.263 211.206,-52.494 214.952,-52.173C218.697,-51.852 221.855,-50.353 224.423,-47.678C226.992,-45.002 228.276,-41.31 228.276,-36.601C228.276,-34.461 227.848,-32.374 226.992,-30.34C226.135,-28.307 224.851,-26.434 223.139,-24.722C211.581,-15.518 199.22,-8.562 186.056,-3.853C172.892,0.856 159.033,3.211 144.478,3.211Z" style="fill:rgb(28,43,61);fill-rule:nonzero;"/>
                    </g>
                    <g transform="matrix(1,0,0,1,3365.84,2224.54)">
                        <path d="M70.634,0C61.216,0 52.868,-2.569 45.591,-7.706C38.314,-12.843 32.641,-19.852 28.575,-28.735C24.508,-37.618 22.474,-47.838 22.474,-59.397L22.474,-234.697C22.474,-239.406 23.973,-243.259 26.969,-246.255C29.966,-249.252 33.819,-250.75 38.528,-250.75C43.236,-250.75 47.089,-249.252 50.086,-246.255C53.082,-243.259 54.581,-239.406 54.581,-234.697L54.581,-59.397C54.581,-51.477 56.079,-44.949 59.076,-39.812C62.072,-34.675 65.925,-32.106 70.634,-32.106L78.66,-32.106C82.941,-32.106 86.419,-30.608 89.095,-27.611C91.771,-24.615 93.108,-20.762 93.108,-16.053C93.108,-11.344 91.075,-7.491 87.008,-4.495C82.941,-1.498 77.697,0 71.276,0L70.634,0Z" style="fill:rgb(28,43,61);fill-rule:nonzero;"/>
                        <path d="M185.579,1.284C168.242,1.284 152.938,-2.515 139.667,-10.113C126.397,-17.712 115.962,-28.2 108.364,-41.578C100.765,-54.955 96.966,-70.313 96.966,-87.65C96.966,-105.202 100.765,-120.666 108.364,-134.044C115.962,-147.421 126.397,-157.909 139.667,-165.508C152.938,-173.106 168.242,-176.906 185.579,-176.906C202.703,-176.906 217.9,-173.106 231.17,-165.508C244.441,-157.909 254.875,-147.421 262.474,-134.044C270.072,-120.666 273.872,-105.202 273.872,-87.65C273.872,-70.313 270.126,-54.955 262.634,-41.578C255.143,-28.2 244.762,-17.712 231.491,-10.113C218.221,-2.515 202.917,1.284 185.579,1.284ZM185.579,-27.611C196.709,-27.611 206.555,-30.18 215.117,-35.317C223.679,-40.454 230.368,-47.517 235.184,-56.507C239.999,-65.497 242.407,-75.878 242.407,-87.65C242.407,-99.423 239.999,-109.857 235.184,-118.954C230.368,-128.051 223.679,-135.168 215.117,-140.305C206.555,-145.442 196.709,-148.01 185.579,-148.01C174.449,-148.01 164.603,-145.442 156.041,-140.305C147.48,-135.168 140.737,-128.051 135.815,-118.954C130.892,-109.857 128.43,-99.423 128.43,-87.65C128.43,-75.878 130.892,-65.497 135.815,-56.507C140.737,-47.517 147.48,-40.454 156.041,-35.317C164.603,-30.18 174.449,-27.611 185.579,-27.611Z" style="fill:rgb(28,43,61);fill-rule:nonzero;"/>
                        <path d="M386.88,1.605C372.111,1.605 358.894,-1.552 347.229,-7.866C335.564,-14.18 326.36,-23.438 319.617,-35.638C312.875,-47.838 309.504,-62.821 309.504,-80.587L309.504,-159.568C309.504,-164.277 311.056,-168.184 314.159,-171.287C317.263,-174.391 321.169,-175.943 325.878,-175.943C330.587,-175.943 334.493,-174.391 337.597,-171.287C340.701,-168.184 342.252,-164.277 342.252,-159.568L342.252,-80.587C342.252,-68.6 344.5,-58.701 348.995,-50.888C353.49,-43.076 359.59,-37.297 367.295,-33.551C375.001,-29.805 383.67,-27.932 393.301,-27.932C402.505,-27.932 410.692,-29.752 417.863,-33.391C425.033,-37.029 430.759,-41.952 435.04,-48.159C439.32,-54.367 441.461,-61.323 441.461,-69.029L461.688,-69.029C461.688,-55.758 458.424,-43.772 451.895,-33.069C445.367,-22.367 436.484,-13.913 425.247,-7.706C414.01,-1.498 401.221,1.605 386.88,1.605ZM457.835,0C453.126,0 449.22,-1.552 446.116,-4.655C443.013,-7.759 441.461,-11.665 441.461,-16.374L441.461,-159.568C441.461,-164.491 443.013,-168.451 446.116,-171.448C449.22,-174.444 453.126,-175.943 457.835,-175.943C462.758,-175.943 466.718,-174.444 469.714,-171.448C472.711,-168.451 474.209,-164.491 474.209,-159.568L474.209,-16.374C474.209,-11.665 472.711,-7.759 469.714,-4.655C466.718,-1.552 462.758,0 457.835,0Z" style="fill:rgb(28,43,61);fill-rule:nonzero;"/>
                        <path d="M601.999,1.284C585.304,1.284 570.268,-2.622 556.89,-10.435C543.512,-18.247 532.917,-28.896 525.105,-42.38C517.292,-55.865 513.386,-71.062 513.386,-87.971C513.386,-104.881 516.971,-120.024 524.142,-133.402C531.312,-146.779 541.104,-157.374 553.519,-165.187C565.933,-172.999 579.953,-176.906 595.578,-176.906C608.207,-176.906 619.872,-174.284 630.574,-169.04C641.276,-163.796 650.266,-156.679 657.543,-147.689L657.543,-234.376C657.543,-239.299 659.095,-243.259 662.199,-246.255C665.302,-249.252 669.208,-250.75 673.917,-250.75C678.84,-250.75 682.8,-249.252 685.797,-246.255C688.793,-243.259 690.292,-239.299 690.292,-234.376L690.292,-87.971C690.292,-71.062 686.385,-55.865 678.573,-42.38C670.76,-28.896 660.219,-18.247 646.948,-10.435C633.678,-2.622 618.695,1.284 601.999,1.284ZM601.999,-27.611C612.915,-27.611 622.654,-30.233 631.216,-35.477C639.778,-40.721 646.52,-47.945 651.443,-57.149C656.366,-66.353 658.827,-76.627 658.827,-87.971C658.827,-99.53 656.366,-109.804 651.443,-118.793C646.52,-127.783 639.778,-134.9 631.216,-140.144C622.654,-145.388 612.915,-148.01 601.999,-148.01C591.297,-148.01 581.612,-145.388 572.943,-140.144C564.274,-134.9 557.425,-127.783 552.395,-118.793C547.365,-109.804 544.85,-99.53 544.85,-87.971C544.85,-76.627 547.365,-66.353 552.395,-57.149C557.425,-47.945 564.274,-40.721 572.943,-35.477C581.612,-30.233 591.297,-27.611 601.999,-27.611Z" style="fill:rgb(28,43,61);fill-rule:nonzero;"/>
                        <path d="M842.471,0C837.762,0 833.855,-1.605 830.752,-4.816C827.648,-8.027 826.096,-11.986 826.096,-16.695L826.096,-234.055C826.096,-238.978 827.648,-242.991 830.752,-246.095C833.855,-249.198 837.762,-250.75 842.471,-250.75C847.608,-250.75 851.888,-248.717 855.313,-244.65L995.297,-58.433L995.297,-234.055C995.297,-238.978 996.902,-242.991 1000.11,-246.095C1003.32,-249.198 1007.28,-250.75 1011.99,-250.75C1016.92,-250.75 1020.88,-249.198 1023.87,-246.095C1026.87,-242.991 1028.37,-238.978 1028.37,-234.055L1028.37,-16.695C1028.37,-11.986 1026.87,-8.027 1023.87,-4.816C1020.88,-1.605 1016.92,0 1011.99,0C1009.85,0 1007.55,-0.482 1005.09,-1.445C1002.63,-2.408 1000.65,-3.853 999.149,-5.779L859.166,-191.996L859.166,-16.695C859.166,-11.986 857.614,-8.027 854.51,-4.816C851.407,-1.605 847.393,0 842.471,0Z" style="fill:rgb(28,43,61);fill-rule:nonzero;"/>
                        <path d="M1099.32,0C1094.61,0 1090.7,-1.552 1087.6,-4.655C1084.5,-7.759 1082.95,-11.665 1082.95,-16.374L1082.95,-159.247C1082.95,-164.17 1084.5,-168.13 1087.6,-171.127C1090.7,-174.123 1094.61,-175.621 1099.32,-175.621C1104.24,-175.621 1108.2,-174.123 1111.2,-171.127C1114.2,-168.13 1115.69,-164.17 1115.69,-159.247L1115.69,-16.374C1115.69,-11.665 1114.2,-7.759 1111.2,-4.655C1108.2,-1.552 1104.24,0 1099.32,0ZM1099.32,-204.196C1093.54,-204.196 1088.57,-206.283 1084.39,-210.457C1080.22,-214.631 1078.13,-219.607 1078.13,-225.386C1078.13,-231.165 1080.22,-236.142 1084.39,-240.316C1088.57,-244.489 1093.54,-246.576 1099.32,-246.576C1105.1,-246.576 1110.08,-244.489 1114.25,-240.316C1118.42,-236.142 1120.51,-231.165 1120.51,-225.386C1120.51,-219.607 1118.42,-214.631 1114.25,-210.457C1110.08,-206.283 1105.1,-204.196 1099.32,-204.196Z" style="fill:rgb(28,43,61);fill-rule:nonzero;"/>
                        <path d="M1315.4,0.321C1310.69,0.321 1306.78,-1.231 1303.68,-4.334C1300.57,-7.438 1299.02,-11.344 1299.02,-16.053L1299.02,-95.035C1299.02,-107.235 1296.78,-117.188 1292.28,-124.894C1287.79,-132.599 1281.74,-138.325 1274.14,-142.07C1266.54,-145.816 1257.82,-147.689 1247.97,-147.689C1238.98,-147.689 1230.85,-145.87 1223.57,-142.231C1216.3,-138.592 1210.52,-133.723 1206.24,-127.623C1201.95,-121.522 1199.81,-114.512 1199.81,-106.593L1179.59,-106.593C1179.59,-120.078 1182.85,-132.117 1189.38,-142.713C1195.91,-153.308 1204.84,-161.709 1216.19,-167.916C1227.53,-174.123 1240.27,-177.227 1254.39,-177.227C1269.16,-177.227 1282.38,-174.07 1294.05,-167.755C1305.71,-161.441 1314.91,-152.184 1321.66,-139.983C1328.4,-127.783 1331.77,-112.8 1331.77,-95.035L1331.77,-16.053C1331.77,-11.344 1330.22,-7.438 1327.12,-4.334C1324.01,-1.231 1320.11,0.321 1315.4,0.321ZM1183.44,0.321C1178.73,0.321 1174.83,-1.231 1171.72,-4.334C1168.62,-7.438 1167.07,-11.344 1167.07,-16.053L1167.07,-159.247C1167.07,-164.17 1168.62,-168.13 1171.72,-171.127C1174.83,-174.123 1178.73,-175.621 1183.44,-175.621C1188.36,-175.621 1192.32,-174.123 1195.32,-171.127C1198.32,-168.13 1199.81,-164.17 1199.81,-159.247L1199.81,-16.053C1199.81,-11.344 1198.32,-7.438 1195.32,-4.334C1192.32,-1.231 1188.36,0.321 1183.44,0.321Z" style="fill:rgb(28,43,61);fill-rule:nonzero;"/>
                        <path d="M1458.91,1.284C1441.14,1.284 1425.36,-2.515 1411.55,-10.113C1397.75,-17.712 1386.94,-28.2 1379.12,-41.578C1371.31,-54.955 1367.41,-70.313 1367.41,-87.65C1367.41,-105.202 1371.1,-120.666 1378.48,-134.044C1385.87,-147.421 1396.09,-157.909 1409.14,-165.508C1422.2,-173.106 1437.18,-176.906 1454.09,-176.906C1470.79,-176.906 1485.13,-173.213 1497.12,-165.829C1509.1,-158.445 1518.25,-148.278 1524.57,-135.328C1530.88,-122.379 1534.04,-107.449 1534.04,-90.54C1534.04,-86.473 1532.65,-83.102 1529.86,-80.426C1527.08,-77.751 1523.55,-76.413 1519.27,-76.413L1389.88,-76.413L1389.88,-102.098L1518.31,-102.098L1505.14,-93.108C1504.93,-103.81 1502.79,-113.389 1498.72,-121.843C1494.65,-130.298 1488.88,-136.987 1481.38,-141.91C1473.89,-146.833 1464.8,-149.294 1454.09,-149.294C1441.89,-149.294 1431.46,-146.619 1422.79,-141.268C1414.12,-135.917 1407.54,-128.586 1403.04,-119.275C1398.55,-109.964 1396.3,-99.423 1396.3,-87.65C1396.3,-75.878 1398.98,-65.39 1404.33,-56.186C1409.68,-46.982 1417.06,-39.705 1426.48,-34.354C1435.9,-29.003 1446.71,-26.327 1458.91,-26.327C1465.54,-26.327 1472.34,-27.558 1479.3,-30.019C1486.25,-32.481 1491.87,-35.317 1496.15,-38.528C1499.36,-40.882 1502.84,-42.113 1506.59,-42.22C1510.33,-42.327 1513.6,-41.203 1516.38,-38.849C1520.02,-35.638 1521.94,-32.106 1522.16,-28.254C1522.37,-24.401 1520.66,-21.083 1517.02,-18.301C1509.74,-12.521 1500.7,-7.813 1489.89,-4.174C1479.08,-0.535 1468.76,1.284 1458.91,1.284Z" style="fill:rgb(28,43,61);fill-rule:nonzero;"/>
                        <path d="M1707.09,0C1703.24,0 1699.82,-1.177 1696.82,-3.532C1693.82,-5.886 1691.68,-9.097 1690.4,-13.164L1625.86,-227.634C1623.72,-234.697 1623.88,-240.316 1626.35,-244.489C1628.81,-248.663 1632.82,-250.75 1638.38,-250.75C1642.02,-250.75 1645.34,-249.734 1648.34,-247.7C1651.34,-245.667 1653.48,-242.51 1654.76,-238.229L1710.95,-42.38L1703.88,-42.38L1755.89,-236.302C1756.75,-239.513 1758.68,-242.189 1761.67,-244.329C1764.67,-246.469 1768.1,-247.54 1771.95,-247.54C1775.37,-247.54 1778.64,-246.63 1781.74,-244.811C1784.84,-242.991 1786.82,-240.262 1787.68,-236.623L1840.01,-42.38L1833.59,-42.38L1890.1,-239.834C1892.24,-247.111 1897.7,-250.75 1906.47,-250.75C1912.47,-250.75 1916.32,-248.449 1918.03,-243.847C1919.74,-239.245 1919.74,-233.841 1918.03,-227.634L1853.5,-13.485C1852,-9.418 1849.81,-6.154 1846.92,-3.692C1844.03,-1.231 1840.65,0 1836.8,0C1832.74,0 1829.26,-1.284 1826.37,-3.853C1823.48,-6.421 1821.39,-9.525 1820.11,-13.164L1768.42,-212.865L1776.12,-212.865L1723.79,-13.485C1722.29,-9.418 1720.1,-6.154 1717.21,-3.692C1714.32,-1.231 1710.95,0 1707.09,0Z" style="fill:rgb(28,43,61);fill-rule:nonzero;"/>
                        <path d="M1989.31,1.284C1971.54,1.284 1955.76,-2.515 1941.95,-10.113C1928.15,-17.712 1917.34,-28.2 1909.53,-41.578C1901.71,-54.955 1897.81,-70.313 1897.81,-87.65C1897.81,-105.202 1901.5,-120.666 1908.88,-134.044C1916.27,-147.421 1926.49,-157.909 1939.54,-165.508C1952.6,-173.106 1967.58,-176.906 1984.49,-176.906C2001.19,-176.906 2015.53,-173.213 2027.52,-165.829C2039.5,-158.445 2048.65,-148.278 2054.97,-135.328C2061.28,-122.379 2064.44,-107.449 2064.44,-90.54C2064.44,-86.473 2063.05,-83.102 2060.26,-80.426C2057.48,-77.751 2053.95,-76.413 2049.67,-76.413L1920.28,-76.413L1920.28,-102.098L2048.71,-102.098L2035.54,-93.108C2035.33,-103.81 2033.19,-113.389 2029.12,-121.843C2025.05,-130.298 2019.28,-136.987 2011.78,-141.91C2004.29,-146.833 1995.19,-149.294 1984.49,-149.294C1972.29,-149.294 1961.86,-146.619 1953.19,-141.268C1944.52,-135.917 1937.94,-128.586 1933.44,-119.275C1928.95,-109.964 1926.7,-99.423 1926.7,-87.65C1926.7,-75.878 1929.38,-65.39 1934.73,-56.186C1940.08,-46.982 1947.46,-39.705 1956.88,-34.354C1966.3,-29.003 1977.11,-26.327 1989.31,-26.327C1995.94,-26.327 2002.74,-27.558 2009.7,-30.019C2016.65,-32.481 2022.27,-35.317 2026.55,-38.528C2029.76,-40.882 2033.24,-42.113 2036.99,-42.22C2040.73,-42.327 2044,-41.203 2046.78,-38.849C2050.42,-35.638 2052.34,-32.106 2052.56,-28.254C2052.77,-24.401 2051.06,-21.083 2047.42,-18.301C2040.14,-12.521 2031.1,-7.813 2020.29,-4.174C2009.48,-0.535 1999.15,1.284 1989.31,1.284Z" style="fill:rgb(28,43,61);fill-rule:nonzero;"/>
                        <path d="M2184.84,1.284C2168.14,1.284 2153.16,-2.622 2139.89,-10.435C2126.62,-18.247 2116.13,-28.896 2108.43,-42.38C2100.72,-55.865 2096.76,-71.062 2096.55,-87.971L2096.55,-234.376C2096.55,-239.299 2098.1,-243.259 2101.2,-246.255C2104.3,-249.252 2108.21,-250.75 2112.92,-250.75C2117.84,-250.75 2121.8,-249.252 2124.8,-246.255C2127.8,-243.259 2129.29,-239.299 2129.29,-234.376L2129.29,-147.689C2136.79,-156.679 2145.83,-163.796 2156.42,-169.04C2167.02,-174.284 2178.63,-176.906 2191.26,-176.906C2206.88,-176.906 2220.9,-172.999 2233.32,-165.187C2245.73,-157.374 2255.53,-146.779 2262.7,-133.402C2269.87,-120.024 2273.45,-104.881 2273.45,-87.971C2273.45,-71.062 2269.55,-55.865 2261.73,-42.38C2253.92,-28.896 2243.38,-18.247 2230.11,-10.435C2216.84,-2.622 2201.75,1.284 2184.84,1.284ZM2184.84,-27.611C2195.75,-27.611 2205.49,-30.233 2214.05,-35.477C2222.62,-40.721 2229.41,-47.945 2234.44,-57.149C2239.47,-66.353 2241.99,-76.627 2241.99,-87.971C2241.99,-99.53 2239.47,-109.804 2234.44,-118.793C2229.41,-127.783 2222.62,-134.9 2214.05,-140.144C2205.49,-145.388 2195.75,-148.01 2184.84,-148.01C2174.14,-148.01 2164.45,-145.388 2155.78,-140.144C2147.11,-134.9 2140.32,-127.783 2135.39,-118.793C2130.47,-109.804 2128.01,-99.53 2128.01,-87.971C2128.01,-76.627 2130.47,-66.353 2135.39,-57.149C2140.32,-47.945 2147.11,-40.721 2155.78,-35.477C2164.45,-30.233 2174.14,-27.611 2184.84,-27.611Z" style="fill:rgb(28,43,61);fill-rule:nonzero;"/>
                    </g>
                </g>
            </g>
        </g>
        <g transform="matrix(4.16667,0,0,4.16667,-454.913,0)">
            <g>
                <path d="M277.867,483.175C277.878,483.442 277.88,483.708 277.875,483.972C277.839,485.468 275.956,486.1 274.975,484.969C272.806,482.469 269.604,480.89 266.038,480.89C262.472,480.89 259.271,482.468 257.103,484.966C256.114,486.105 254.232,485.453 254.2,483.944C254.198,483.859 254.197,483.773 254.197,483.688C254.197,476.89 259.922,471.427 266.814,471.867C272.794,472.249 277.615,477.188 277.867,483.175Z" style="fill:url(#_Linear1);"/>
            </g>
        </g>
        <g transform="matrix(4.16667,0,0,4.16667,-454.913,0)">
            <g>
                <path d="M251.121,502.058C245.526,506.036 239.25,507.982 232.904,507.989C226.559,507.964 220.291,506.021 214.702,502.043C210.82,499.278 207.396,495.57 204.598,490.808C203.243,488.502 199.758,489.444 199.757,492.118C199.756,493.856 199.93,495.617 200.263,497.363C201.162,502.004 203.293,506.509 206.351,510.394C209.424,514.268 213.471,517.471 218.066,519.654C222.658,521.845 227.798,522.989 232.904,522.987C238.01,522.979 243.147,521.833 247.735,519.64C252.329,517.457 256.37,514.25 259.441,510.378C262.497,506.496 264.626,501.993 265.527,497.355C265.858,495.63 266.033,493.891 266.038,492.172C266.044,489.495 262.55,488.553 261.194,490.862C258.407,495.604 254.994,499.302 251.121,502.058Z" style="fill:url(#_Linear2);"/>
            </g>
        </g>
        <g transform="matrix(4.16667,0,0,4.16667,-454.913,0)">
            <g>
                <path d="M232.904,429.774C215.836,429.774 198.769,432.276 182.257,437.278C171.171,440.637 163.589,450.856 163.589,462.44L163.589,496.076C163.589,521.979 177.411,545.913 199.846,558.859L207.968,563.547C215.684,568 224.294,570.226 232.904,570.226C241.514,570.226 250.124,568 257.84,563.547L265.962,558.859C288.397,545.913 302.219,521.979 302.219,496.076L302.219,462.44C302.219,450.856 294.637,440.637 283.551,437.278L283.55,437.278C267.039,432.276 249.971,429.774 232.904,429.774ZM232.904,444.774C248.602,444.774 264.178,447.082 279.201,451.634C283.997,453.086 287.219,457.429 287.219,462.44L287.219,496.076C287.219,516.555 276.201,535.632 258.465,545.868L250.342,550.555C245.047,553.61 239.017,555.226 232.904,555.226C226.791,555.226 220.761,553.61 215.466,550.555L207.343,545.868C189.607,535.632 178.589,516.555 178.589,496.076L178.589,462.44C178.589,457.429 181.811,453.086 186.607,451.634C201.63,447.082 217.207,444.774 232.904,444.774Z" style="fill:url(#_Linear3);"/>
            </g>
        </g>
    </g>
    <defs>
        <linearGradient id="_Linear1" x1="0" y1="0" x2="1" y2="0" gradientUnits="userSpaceOnUse" gradientTransform="matrix(105.408,-141.696,141.696,105.408,187.473,587.728)"><stop offset="0" style="stop-color:rgb(237,26,78);stop-opacity:1"/><stop offset="1" style="stop-color:rgb(243,114,67);stop-opacity:1"/></linearGradient>
        <linearGradient id="_Linear2" x1="0" y1="0" x2="1" y2="0" gradientUnits="userSpaceOnUse" gradientTransform="matrix(105.408,-141.696,141.696,105.408,172.967,576.937)"><stop offset="0" style="stop-color:rgb(237,26,78);stop-opacity:1"/><stop offset="1" style="stop-color:rgb(243,114,67);stop-opacity:1"/></linearGradient>
        <linearGradient id="_Linear3" x1="0" y1="0" x2="1" y2="0" gradientUnits="userSpaceOnUse" gradientTransform="matrix(105.408,-141.696,141.696,105.408,168.437,573.568)"><stop offset="0" style="stop-color:rgb(237,26,78);stop-opacity:1"/><stop offset="1" style="stop-color:rgb(243,114,67);stop-opacity:1"/></linearGradient>
    </defs>
</svg>
